<?xml version="1.0" encoding="UTF-8"?>
<svg width="14px" height="10px" viewBox="0 0 14 10" version="1.1" xmlns="http://www.w3.org/2000/svg" xmlns:xlink="http://www.w3.org/1999/xlink">
    <!-- Generator: sketchtool 55.2 (78181) - https://sketchapp.com -->
    <title>37E83C2A-1C27-4855-BDA3-5F4539F16F4F</title>
    <desc>Created with sketchtool.</desc>
    <defs>
        <path d="M14,5 L2,5 L2,4.5 C2,4.224 2.224,4 2.5,4 L13.5,4 C13.775,4 14,4.224 14,4.5 L14,5 Z M14,11.5 C14,11.775 13.775,12 13.5,12 L2.5,12 C2.224,12 2,11.775 2,11.5 L2,7 L14,7 L14,11.5 Z M13.5,3 L2.5,3 C1.673,3 1,3.673 1,4.5 L1,11.5 C1,12.327 1.673,13 2.5,13 L13.5,13 C14.327,13 15,12.327 15,11.5 L15,4.5 C15,3.673 14.327,3 13.5,3 L13.5,3 Z" id="path-1"></path>
    </defs>
    <g id="Frames" stroke="none" stroke-width="1" fill="none" fill-rule="evenodd">
        <g id="1.1.-One-liner" transform="translate(-125.000000, -100.000000)">
            <g id="Group" transform="translate(112.000000, 85.000000)">
                <g id="icon/action/card/card-copy-2" transform="translate(12.000000, 12.000000)">
                    <mask id="mask-2" fill="white">
                        <use xlink:href="#path-1"></use>
                    </mask>
                    <use id="Fill-1" fill="#ACBABF" xlink:href="#path-1"></use>
                    <g id="🎨-icon-color" mask="url(#mask-2)" fill="#354C55">
                        <rect id="Rectangle-2-Copy-2" x="0" y="0" width="16" height="16"></rect>
                    </g>
                </g>
            </g>
        </g>
    </g>
</svg>